<?xml version="1.0"?>
<svg xmlns="http://www.w3.org/2000/svg" xmlns:xlink="http://www.w3.org/1999/xlink" version="1.1" id="Capa_1" x="0px" y="0px" viewBox="0 0 440 440" style="enable-background:new 0 0 440 440;" xml:space="preserve" width="512px" height="512px" class=""><g><g>
	<g>
		<path d="M304.96,55.6H58.72C30.32,55.6,0,71.2,0,114.48v211.2c0,43.28,30.32,58.72,58.72,58.72h246.24    c28.4,0,58.72-15.44,58.72-58.72v-211.2C364,86.08,348,55.6,304.96,55.6z M348,325.68c0,38.56-29.84,42.72-42.72,42.72H58.72    c-12.88,0-42.72-4.16-42.72-42.72V160.4h332V325.68z M348,144.4H16v-29.92C16,75.92,45.84,71.6,58.72,71.6h246.24    c38.56,0,43.04,30.08,43.04,42.88V144.4z" data-original="#000000" class="active-path" data-old_color="#000000" fill="#35CC4C"/>
	</g>
</g><g>
	<g>
		<path d="M410.48,82.88L410.48,82.88c-16.303,0-29.52,13.217-29.52,29.52V298c-0.006,1.159,0.24,2.305,0.72,3.36l21.52,46.48    c1.832,4.021,6.576,5.795,10.597,3.963c1.756-0.8,3.163-2.207,3.963-3.963l21.52-46.48c0.481-1.055,0.726-2.201,0.72-3.36V112.32    C439.956,96.048,426.752,82.88,410.48,82.88z M397.04,112.4c0-7.436,6.004-13.476,13.44-13.52c7.467,0,13.52,6.053,13.52,13.52v32    h-26.96V112.4z M424,296.24l-13.52,29.2l-13.52-29.2v-136H424V296.24z" data-original="#000000" class="active-path" data-old_color="#000000" fill="#35CC4C"/>
	</g>
</g><g>
	<g>
		<path d="M72.4,101.04H53.52c-4.418,0-8,3.582-8,8s3.582,8,8,8H72.4c4.418,0,8-3.582,8-8S76.818,101.04,72.4,101.04z" data-original="#000000" class="active-path" data-old_color="#000000" fill="#35CC4C"/>
	</g>
</g><g>
	<g>
		<path d="M122.72,101.04h-18.88c-4.418,0-8,3.582-8,8s3.582,8,8,8h18.88c4.418,0,8-3.582,8-8S127.138,101.04,122.72,101.04z" data-original="#000000" class="active-path" data-old_color="#000000" fill="#35CC4C"/>
	</g>
</g><g>
	<g>
		<path d="M153.52,192.72H66.8c-4.418,0-8,3.582-8,8s3.582,8,8,8h86.72c4.418,0,8-3.582,8-8S157.938,192.72,153.52,192.72z" data-original="#000000" class="active-path" data-old_color="#000000" fill="#35CC4C"/>
	</g>
</g><g>
	<g>
		<path d="M287.84,244.48H66.8c-4.418,0-8,3.582-8,8c0,4.418,3.582,8,8,8h221.04c4.418,0,8-3.582,8-8    C295.84,248.062,292.258,244.48,287.84,244.48z" data-original="#000000" class="active-path" data-old_color="#000000" fill="#35CC4C"/>
	</g>
</g></g> </svg>
