<?xml version="1.0"?>
<svg xmlns="http://www.w3.org/2000/svg" xmlns:xlink="http://www.w3.org/1999/xlink" version="1.1" id="Layer_1" x="0px" y="0px" viewBox="0 0 511.999 511.999" style="enable-background:new 0 0 511.999 511.999;" xml:space="preserve" width="512px" height="512px" class=""><g><g>
	<polygon style="fill:#35CC4C" points="61.139,155.276 142.84,155.276 142.84,484.319 7.204,484.319 7.204,155.276  " data-original="#FDC00F" class="" data-old_color="#FDC00F"/>
	<polygon style="fill:#35CC4C" points="242.45,221.063 323.299,221.063 323.299,484.319 197.073,484.319 197.073,221.063  " data-original="#FDC00F" class="" data-old_color="#FDC00F"/>
	<rect x="370.64" y="291.869" style="fill:#35CC4C" width="126.229" height="192.446" data-original="#FDC00F" class="" data-old_color="#FDC00F"/>
</g><polygon style="opacity: 0.1;fill:#000000" points="104.767,161.569 104.767,446.246 16.614,446.246 16.614,484.319   142.84,484.319 142.84,161.569 " data-original="#000000" class="active-path" data-old_color="opacity: 0.1#000000"/><polygon style="opacity: 0.1;fill:#000000" points="285.225,225.13 285.225,446.378 197.073,446.378 197.073,484.452   323.299,484.452 323.299,225.13 " data-original="#000000" class="active-path" data-old_color="opacity: 0.1#000000"/><polygon style="opacity: 0.1;fill:#000000" points="458.793,291.87 458.793,446.246 370.64,446.246 370.64,484.319   496.866,484.319 496.866,291.87 " data-original="#000000" class="active-path" data-old_color="opacity: 0.1#000000"/><path d="M75.819,269.755c3.181,0,6.461-1.392,6.461-4.076v-64.612c0-2.586-3.081-4.175-5.766-4.175  c-1.094,0-1.988,0.397-2.684,0.993l-11.73,8.946c-1.59,0.994-2.485,2.882-2.485,4.673c0,2.584,1.69,5.169,4.175,5.169  c0.696,0,1.591-0.2,2.385-0.895l3.181-3.18v53.081C69.357,268.363,72.538,269.755,75.819,269.755z" data-original="#000000" class="active-path" style="fill:#000000"/><path d="M236.998,329v9.642c0,2.484,3.379,4.075,5.666,4.075h35.388c2.188,0,4.075-2.783,4.075-5.767  c0-2.981-1.888-5.566-4.075-5.566h-27.634V329c0-10.339,31.511-17.297,31.511-38.768c0-12.625-10.736-20.179-22.266-20.179  c-11.034,0-21.372,6.96-21.372,18.29c0,5.368,2.484,6.959,5.864,6.959c4.275,0,6.76-2.385,6.76-4.773  c0-6.162,3.976-8.747,8.847-8.747c6.561,0,9.245,4.772,9.245,8.847C269.006,304.646,236.998,313.094,236.998,329z" data-original="#000000" class="active-path" style="fill:#000000"/><path d="M438.528,413.007c13.121,0,23.857-6.063,23.857-22.067v-1.888c0-8.252-4.275-12.724-10.139-15.009  c4.87-2.286,7.753-8.648,7.753-16.5c0-13.222-8.946-17.795-20.973-17.795c-16.8,0-21.77,10.24-21.77,17.298  c0,4.175,0.894,5.566,6.66,5.566c4.772,0,6.163-1.989,6.163-4.97c0-3.976,2.386-6.661,8.847-6.661c5.367,0,8.748,2.187,8.748,8.749  c0,8.548-4.175,9.742-9.145,9.742c-2.882,0-3.876,2.584-3.876,5.069c0,2.585,0.994,5.071,3.876,5.071  c6.361,0,10.934,2.086,10.934,9.442v1.888c0,7.555-3.181,10.738-10.636,10.738c-6.361,0-10.339-2.785-10.339-7.258  c0-3.181-1.392-4.573-6.661-4.573c-4.473,0-6.163,1.094-6.163,5.071C415.666,402.968,422.226,413.007,438.528,413.007z" data-original="#000000" class="active-path" style="fill:#000000"/><path d="M138.231,147.035H59.615c-4.262,0-7.718,3.454-7.718,7.718c0,4.263,3.455,7.718,7.718,7.718h70.899v318.278H15.435V154.753  c0-4.263-3.455-7.718-7.718-7.718S0,150.49,0,154.753v333.713c0,4.263,3.455,7.718,7.718,7.718h130.514  c4.262,0,7.718-3.454,7.718-7.718V154.753C145.949,150.49,142.494,147.035,138.231,147.035z" data-original="#000000" class="active-path" style="fill:#000000"/><path d="M324.819,212.755h-83.595c-4.262,0-7.718,3.454-7.718,7.718c0,4.263,3.455,7.718,7.718,7.718h75.877v252.558H202.023  V220.473c0-4.263-3.455-7.718-7.718-7.718c-4.262,0-7.718,3.454-7.718,7.718v267.993c0,4.263,3.455,7.718,7.718,7.718h130.513  c4.262,0,7.718-3.454,7.718-7.718V220.473C332.537,216.21,329.082,212.755,324.819,212.755z" data-original="#000000" class="active-path" style="fill:#000000"/><path d="M504.282,281.762H373.769c-4.262,0-7.718,3.454-7.718,7.718v198.987c0,4.263,3.455,7.718,7.718,7.718h130.513  c4.262,0,7.718-3.454,7.718-7.718V289.479C512,285.216,508.545,281.762,504.282,281.762z M496.565,480.748H381.486V297.197h115.078  v183.551H496.565z" data-original="#000000" class="active-path" style="fill:#000000"/><path d="M82.279,120.354c4.262,0,7.718-3.454,7.718-7.718V31.251h161.848v129.462c0,4.263,3.455,7.718,7.718,7.718h171.745v84.448  c0,4.263,3.455,7.718,7.718,7.718s7.718-3.454,7.718-7.718v-92.166c0-4.263-3.455-7.718-7.718-7.718H267.28V23.533  c0-4.263-3.455-7.718-7.718-7.718H82.279c-4.262,0-7.718,3.454-7.718,7.718v89.103C74.561,116.9,78.017,120.354,82.279,120.354z" data-original="#000000" class="active-path" style="fill:#000000"/></g> </svg>
