<?xml version="1.0" encoding="iso-8859-1"?>
<!-- Generator: Adobe Illustrator 19.0.0, SVG Export Plug-In . SVG Version: 6.00 Build 0)  -->
<svg xmlns="http://www.w3.org/2000/svg" xmlns:xlink="http://www.w3.org/1999/xlink" version="1.1" id="Capa_1" x="0px" y="0px" viewBox="0 0 372.897 372.897" style="enable-background:new 0 0 372.897 372.897;" xml:space="preserve" width="512px" height="512px">
<g>
	<g>
		<path d="M234.109,171.896c-6.517-1.353-12.933-3.158-19.2-5.4l-33.88,20.88c-9.234,5.691-21.333,2.819-27.024-6.415    c-3.512-5.699-3.88-12.793-0.976-18.825l13.24-27.24c-4.973-5.54-9.233-11.681-12.68-18.28c-5.766-10.955-8.799-23.141-8.84-35.52    c0.008-10.788,2.312-21.451,6.76-31.28h-97.64h-0.8l-51.2,53.08l-0.32,0.32l-0.2,0.28c-0.812,1.173-1.232,2.573-1.2,4v245.8    c0.01,5.194,2.082,10.172,5.76,13.84c3.68,3.684,8.673,5.756,13.88,5.76h196.56c5.211,0.032,10.219-2.012,13.92-5.68    c3.684-3.68,5.756-8.673,5.76-13.88v-181.04L234.109,171.896z M136.389,144.016c3.755,0,6.8,3.044,6.8,6.8s-3.044,6.8-6.8,6.8    h-89.76c-3.756,0-6.8-3.044-6.8-6.8s3.044-6.8,6.8-6.8H136.389z M26.269,101.016l-3.08-0.04l28-28v3.16    c0,13.741-11.139,24.88-24.88,24.88C26.296,101.016,26.282,101.016,26.269,101.016z M46.629,178.896h89.76    c3.755,0,6.8,3.044,6.8,6.8c0,3.755-3.044,6.8-6.8,6.8h-89.76c-3.756,0-6.8-3.044-6.8-6.8    C39.829,181.941,42.874,178.896,46.629,178.896z M184.029,262.256h-137.4c-3.756,0-6.8-3.044-6.8-6.8c0-3.756,3.044-6.8,6.8-6.8    h137.4c3.756,0,6.8,3.044,6.8,6.8C190.829,259.212,187.785,262.256,184.029,262.256z M184.029,227.376h-137.4    c-3.756,0-6.8-3.044-6.8-6.8c0-3.756,3.044-6.8,6.8-6.8h137.4c3.756,0,6.8,3.044,6.8,6.8    C190.829,224.332,187.785,227.376,184.029,227.376z" fill="#5fcd4d"/>
	</g>
</g>
<g>
	<g>
		<path d="M340.429,23.096c-22.035-15.432-48.382-23.509-75.28-23.08c-26.898-0.429-53.245,7.648-75.28,23.08    c-20,14.72-32.32,35.2-32.32,58c0.032,10.316,2.557,20.471,7.36,29.6c4.292,8.129,9.963,15.451,16.76,21.64l-17.08,35.48    c-1.667,3.341-0.31,7.4,3.031,9.067c2.124,1.06,4.647,0.928,6.649-0.347l39.28-24.24c7.471,3.05,15.212,5.394,23.12,7    c9.372,1.919,18.914,2.884,28.48,2.88c26.898,0.429,53.245-7.648,75.28-23.08c20-14.72,32.32-35.2,32.32-58    C372.749,58.296,360.389,37.816,340.429,23.096z M316.194,70.063c-0.014,0.065-0.029,0.129-0.045,0.194h0    c-0.266,1.185-0.846,2.277-1.68,3.16l-17.44,20l2.32,26.84c0.327,3.741-2.44,7.039-6.182,7.367    c-1.307,0.114-2.619-0.152-3.778-0.767l-24.24-10.28l-24.8,10.52c-3.43,1.474-7.406-0.111-8.88-3.541    c-0.446-1.039-0.625-2.173-0.52-3.299l2.32-26.84l-17.64-20.32c-2.443-2.853-2.11-7.145,0.743-9.588    c0.823-0.705,1.803-1.203,2.857-1.452l26.2-6.08l13.88-23.04c1.924-3.225,6.098-4.28,9.323-2.357    c0.969,0.578,1.779,1.388,2.357,2.357l13.8,22.96l26.2,6.08C314.66,62.772,316.99,66.392,316.194,70.063z" fill="#5fcd4d"/>
	</g>
</g>
<g>
</g>
<g>
</g>
<g>
</g>
<g>
</g>
<g>
</g>
<g>
</g>
<g>
</g>
<g>
</g>
<g>
</g>
<g>
</g>
<g>
</g>
<g>
</g>
<g>
</g>
<g>
</g>
<g>
</g>
</svg>
